<svg preserveAspectRatio="none" overflow="visible" style="display: block;" width="155.944" height="393.666" viewBox="0 0 155.944 393.666" fill="none" xmlns="http://www.w3.org/2000/svg">
<path id="Vector 8" d="M146.863 7.15948C149.229 13.3195 149.901 20.9719 149.796 26.4507C149.769 28.1873 148.553 27.455 148.476 28.6405C148.32 30.9413 149.087 32.9611 148.789 35.1814C148.685 35.9203 146.842 35.1954 146.772 35.9645C146.395 40.1535 147.15 43.9193 147.078 48.0239C146.953 54.8391 146.877 61.4983 146.888 68.1534C146.898 81.6809 146.569 94.6916 146.112 108.03C145.878 114.654 144.257 122.694 144.907 129.514C144.984 130.311 146.535 129.848 146.662 130C148.596 132.394 145.478 131.577 145.05 133.126C143.359 139.269 143.132 146.102 143.641 152.024C143.862 154.537 146.974 152.064 145.209 154.579C145.09 154.753 143.457 154.088 143.271 154.777C142.853 156.324 143.097 159.318 142.946 160.512C142.647 162.86 142.657 163.225 142.598 165.444C142.504 168.454 141.618 172.052 141.926 175.278C141.996 175.97 143.699 175.084 143.963 176.205C144.227 177.325 144.025 180.237 143.607 181.21C143.19 182.175 141.874 181.732 141.567 181.897C138.976 183.301 142.452 186.734 142.53 187.173C142.592 187.54 142.646 187.9 142.693 188.255C143.637 196.103 141.349 202.801 140.29 210.258C139.447 216.208 138.715 222.793 136.729 228.499C134.432 235.228 130.614 240.608 127.898 245.913C127.627 246.458 129.709 246.755 129.387 247.415C129.042 248.127 128.722 248.803 128.455 249.405C123.508 259.8 115.64 264.536 109.451 268.437C108.729 268.868 108.428 266.847 107.637 267.2C103.933 268.866 98.1842 270.914 97.2136 275.272C96.7113 276.788 96.5301 278.469 96.8832 280.441C93.0629 283.192 87.8972 285.377 84.1665 285.194C81.7928 285.082 82.9975 282.568 80.9568 284.235C80.5251 284.599 81.7652 285.893 81.0957 286.314C80.4551 286.721 79.8412 287.071 79.5491 287.28C79.4088 287.378 79.3546 287.444 79.4949 287.362C79.6253 287.274 80.0075 287.031 80.5203 286.291C79.0178 288.671 77.0309 290.897 75.0086 292.939C74.2356 293.716 75.3055 294.768 75.1876 295.175C73.8945 298.734 68.3059 297.11 67.6337 297.013C61.313 297.031 58.1873 297.966 54.7181 298.943C53.9572 299.156 55.3949 300.81 54.7369 301.073C53.6571 301.508 52.8029 301.921 52.1066 302.307C48.4708 304.375 44.337 305.853 40.2121 306.378C38.8609 306.537 39.603 304.573 38.955 304.557C36.1832 304.441 36.1599 307.701 33.484 307.411C32.9438 307.345 33.0334 305.861 32.9167 305.716C31.126 303.428 30.4648 307.083 30.2113 307.201C29.5951 307.472 29.0958 307.642 29.4398 307.476C30.529 307.115 31.623 306.311 32.201 305.606C32.802 304.893 33.0133 304.356 33.112 304.038C33.2806 303.402 33.0866 303.441 32.8959 303.682C32.3408 304.206 32.3435 305.613 29.5664 308.44C27.6925 309.905 26.0935 310.545 23.3226 310.491C22.6007 310.44 21.7362 310.323 20.6593 309.835C19.6066 309.376 18.2651 308.303 17.5777 306.888C16.2629 303.917 17.134 302.3 17.4108 301.347C17.533 301.03 17.6458 300.704 17.7482 300.367C17.9358 299.763 15.6562 300.376 16.326 298.669C20.9155 286.791 33.6275 280.922 36.5652 277.599C37.0383 277.106 38.129 278.052 38.2929 278.108C38.8981 278.162 39.2383 278.07 39.3824 277.928C40.0123 277.095 38.1312 275.739 38.1543 275.343C38.4544 271.465 42.4341 269.139 39.2427 265.342C43.8703 255.136 46.5926 244.396 50.4817 234.129C51.7193 231.056 52.6397 226.585 53.8299 222.214C53.8767 222.021 55.6314 222.393 55.7169 222.006C56.716 217.314 53.9574 218.199 50.5189 215.305C49.6546 214.596 53.5599 212.046 53.838 211.804C54.8788 210.968 57.5412 211.604 57.7358 211.332C59.2465 209.048 50.6434 210.006 50.406 207.209C50.4126 207.119 52.0324 207.354 52.1695 207.102C52.6005 206.319 51.901 205.636 52.3761 204.864C53.4715 203.086 57.5931 201.995 54.8484 199.709C54.4906 199.432 49.69 200.505 49.5853 198.003C49.5652 197.494 49.3668 196.077 49.1724 194.711C49.0143 193.542 48.8261 192.57 48.8674 192.194C48.9527 191.43 50.5926 191.356 50.6483 191.302C51.2641 189.922 51.7986 189.536 52.3911 188.862C52.6849 188.538 52.9983 188.189 53.2902 187.708C53.5572 187.226 53.8948 186.584 53.5948 185.603C53.232 184.614 52.4381 184.469 52.1303 184.775C51.784 185.079 51.7523 185.771 51.8572 186.546C52.0747 188.101 52.7747 190.033 52.9406 190.408C53.0666 190.703 52.9268 190.683 52.4506 190.737C51.9893 190.778 51.2663 190.858 50.6611 190.911C50.3507 190.918 50.0819 190.916 49.9061 190.901C49.0889 190.849 48.9125 189.627 48.2959 189.748C44.1506 190.934 50.0136 193.283 50.3215 194.72C51.4971 197.748 45.9912 196.646 44.5861 199.028C44.2372 199.626 45.5862 199.496 45.5248 200.074C45.2991 202.348 43.3118 203.42 44.3681 206.391C44.535 206.887 47.4465 209.49 44.8867 210.593C44.517 210.753 43.2388 210 42.8091 210.996C42.1591 212.512 41.5863 215.287 41.9001 217.046C42.1341 218.31 44.4828 217.067 43.6643 218.578C43.2998 219.262 42.0933 217.842 41.5178 219.148C40.9434 220.397 40.7816 223.779 40.7546 225.085C40.7282 226.349 42.4656 225.756 42.574 225.864C43.1926 226.515 43.8799 229.033 43.8687 229.234C43.53 240.183 40.3188 250.26 40.8074 261.015C40.8435 261.865 42.6587 261.377 42.6827 261.507C43.3092 264.456 38.6435 261.979 36.964 263.899C40.6112 263.771 39.9037 264.902 40.2116 266.976C40.3627 267.979 41.794 267.5 41.9341 267.597C42.1247 267.742 42.274 267.882 42.3876 268.016C43.5073 269.357 41.1329 270.115 40.6071 270.322C38.4755 271.175 40.8574 272.392 39.4229 272.96C37.9987 273.516 36.0699 271.867 35.9514 273.81C37.2072 274.462 40.715 273.255 41.1472 274.804C42.8307 280.723 38.7525 290.99 37.7091 295.371C36.6973 299.79 36.6617 301.264 35.7273 303.762C34.021 308.265 36.8199 307.025 37.399 310.141C37.9702 313.26 32.1453 310.661 30.7536 310.82C29.3638 310.97 30.6255 311.678 29.8061 312.042C28.9872 312.403 28.3102 311.14 27.8072 312.269C27.3042 313.401 28.9923 317.103 30.2795 317.794C33.0068 319.256 36.34 318.402 34.653 321.319C34.554 321.487 33.066 320.586 32.7682 321.245C30.4576 326.48 29.298 332.138 27.3203 337.449C27.046 338.18 25.359 337.218 25.1791 337.642C23.3182 342.084 26.6033 340.912 29.6278 343.857C26.4081 343.005 23.9689 343.306 22.7059 344.933C22.2414 345.515 21.9338 346.253 21.7891 347.171C21.4562 349.209 23.4597 349.172 24.5957 350.773C24.938 351.261 23.3216 352.482 24.1784 352.931C26.9726 354.423 30.6327 353.682 28.4899 357.125C28.3906 357.272 26.8826 356.392 26.6584 356.925C25.1806 360.333 28.1569 361.54 27.4446 365.527C26.8843 368.661 23.3448 373.346 21.9292 376.51C17.129 374.81 17.179 378.281 20.0955 380.632C19.6659 381.682 19.3151 382.796 18.9589 383.849C18.3471 385.746 17.1899 387.177 16.0177 388.057C15.1811 388.664 14.6287 387.127 14.4241 387.108C11.5976 386.36 12.8646 389.539 12.3914 390.022C10.464 391.928 8.19995 392.692 6.32974 393.348C5.83863 393.564 5.08706 393.768 4.19307 393.61C3.28916 393.459 2.56393 392.927 2.20897 392.542C1.46965 391.713 1.39174 391.234 1.2549 390.837C1.05279 390.085 1.04822 389.616 1.03514 389.157C1.02829 388.265 1.11437 387.522 1.2141 386.767C1.44995 385.256 1.62568 383.801 2.41974 381.804C2.53188 381.414 2.63135 381.009 2.71702 380.586C2.7499 380.394 0.127669 377.96 3.10694 378.362C3.29704 378.414 3.44114 380.795 5.13532 378.902C6.87526 376.945 11.4285 375.071 13.1623 371.742C13.5472 370.939 13.7218 367.267 16.4282 368.215C16.785 368.35 17.1202 369.338 17.6941 369.644C19.4992 370.637 18.1715 367.262 20.7337 369.3C23.3003 371.342 26.2353 372.328 28.2897 369.129C28.3536 369.035 27.92 366.126 28.9059 365.76C29.1545 365.668 29.4285 365.581 29.7102 365.5C31.1609 365.098 33.0373 364.574 34.2874 363.837C34.9949 363.417 33.6549 362.158 33.7618 362.059C37.9019 358.467 41.9918 357.487 47.3442 354.781C48.3151 354.292 49.6561 350.547 52.4742 351.025C55.5396 351.576 58.0971 360.098 61.3555 355.767C62.584 354.104 59.8313 343.051 65.8626 346.466C66.4823 346.012 67.1276 345.609 67.784 345.254C73.6266 342.106 80.2994 341.351 85.4873 336.615C85.7487 336.38 85.277 333.174 85.9878 332.844C87.0552 332.356 88.2931 333.314 89.0833 332.995C91.2979 332.129 93.0305 330.653 94.8517 329.32C95.7425 328.668 96.6559 328.051 97.663 327.559C98.824 326.989 99.1509 328.499 100.535 327.824C101.915 327.152 101.879 324.946 104.166 324.782C105.902 324.664 109.132 327.456 111.143 326.957C109.44 323.423 110.733 322.841 112.59 320.815C112.948 320.424 111.889 319.412 112.03 319.163C112.602 318.116 113.877 318.779 114.399 317.71C114.528 317.452 113.999 316.221 114.078 315.939C114.747 313.48 118.354 315.299 118.927 315.655C121.193 316.94 121.349 315.052 122.834 315.413C124.254 315.792 122.816 317.22 124.201 317.318C124.228 317.32 124.257 317.321 124.286 317.322C127.591 317.414 131.327 315.624 134.163 314.219C135.298 313.651 133.7 312.462 133.844 312.344C135.879 310.775 139.081 311.067 138.44 307.285C144.777 314.246 139.178 305.688 143.488 305.43C143.893 305.403 145.888 309.265 145.477 310.195C145.025 311.154 142.922 310.849 142.121 312.505C141.949 312.888 142.195 317.505 142.035 317.881C140.892 320.785 137.396 315.248 137.131 314.991C134.097 312.269 133.795 317.336 133.205 317.933C130.905 320.449 128.021 320.743 125.611 322.212C125.501 322.291 125.393 322.375 125.287 322.467C124.059 323.515 125.306 327.607 124.254 327.841C120.749 328.683 116.853 323.923 115.598 330.237C115.332 331.595 118.148 335.387 113.889 333.429C113.632 333.298 110.098 331.346 109.939 333.84C109.921 334.153 110.566 335.349 110.431 335.55C109.519 336.878 108.155 336.388 107.012 337.611C105.868 338.834 104.565 340.451 102.697 340.971C102.341 341.069 101.824 340.989 101.283 340.814C100.116 340.46 98.7891 339.71 98.2573 339.524C96.036 338.714 95.9725 342.085 94.0885 340.646C92.2014 339.195 92.2862 335.401 89.4066 335.357C90.9937 338.512 92.515 341.808 94.0507 345.013C88.9833 347.583 83.4048 349.103 78.2813 351.631C77.6466 351.948 79.0991 353.37 78.4358 353.755C76.4944 354.872 74.414 355.16 72.3968 355.821C71.6734 356.038 70.9522 356.353 70.2728 356.865C68.5603 358.158 67.453 361.033 65.7522 362.603C62.522 359.792 60.1718 362.821 57.7589 363.946C56.9097 364.342 56.3757 363.403 55.6219 363.473C52.7864 363.771 55.7389 366.108 55.4694 366.957C54.2926 370.608 49.6018 364.034 46.6498 366.232C46.5032 366.341 46.8317 371.28 46.6799 371.694C45.7699 374.363 45.5677 370.63 44.2303 371.108C41.7425 371.983 39.7949 372.02 37.3603 374.726C36.8816 375.247 36.2607 376.962 34.8032 377.821C34.379 378.13 33.8444 378.19 33.1263 377.723C32.8524 377.545 32.3812 376.197 32.2117 376.18C29.1833 375.993 31.0187 380.102 30.4989 382.047C30.0103 383.977 26.834 382.25 25.9813 381.737C23.8265 380.358 26.2014 380.448 26.1464 380.23C25.443 377.532 24.2624 378.733 23.1121 379.213C20.5889 375.61 19.1571 376.903 21.9313 379.738C22.2287 380.048 22.7922 379.177 23.1121 379.213C24.5023 383.443 23.7031 384.639 19.63 382.798C17.7108 381.977 16.8973 379.676 15.2173 382.374C14.4962 383.609 17.0255 385.344 16.887 386.7C16.7461 388.313 15.6264 389.204 14.3971 390.178C14.7811 389.227 14.4952 389.031 14.368 388.973C14.212 388.895 14.1428 389.114 14.2474 388.614C14.2819 388.4 14.3813 388.104 14.5375 387.938C14.6935 387.767 14.9173 387.736 15.1496 387.746C15.3812 387.754 15.6171 387.793 15.7872 387.709C15.9446 387.598 16.106 387.506 15.904 386.572C15.6437 385.802 15.664 384.803 13.6177 382.26C12.5641 381.03 10.43 379.201 7.26841 378.525C4.14179 377.852 1.51198 378.596 0 379.282C1.85736 378.421 3.2762 378.696 3.92338 377.692C3.97312 377.593 2.92365 376.204 3.15656 376.04C3.54501 375.756 3.68737 375.621 3.47498 375.918C3.29144 376.201 2.6115 377.079 2.22305 378.728C3.37528 375.898 4.54502 373.539 5.46545 370.852C6.32038 368.388 6.78786 363.863 7.67373 361.499C9.23524 357.414 12.9411 352.823 12.9871 349.088C13.0187 346.683 11.2092 346.918 10.1995 345.769C9.48609 344.974 9.61188 344.14 10.0883 343.355C10.9806 341.565 13.0339 340.041 13.4842 339.755C13.5046 339.742 13.5817 342.164 14.636 341.024C16.5709 340.551 13.4882 339.785 13.4842 339.755C13.9316 339.444 15.0389 334.827 14.8752 333.857C14.78 333.327 13.1158 333.338 13.0971 333.065C12.6951 326.577 13.4935 320.367 15.4407 314.472C15.4942 314.372 17.2622 314.888 17.3656 314.649C18.8576 311.311 17.0964 308.653 16.3358 305.567C15.5751 302.482 16.4235 300.358 19.8235 299.258C19.8202 297.068 21.7129 294.28 22.828 292.669C23.9454 291.052 20.4503 290.262 20.405 290.099C18.8934 285.036 21.2825 282.646 22.117 277.81C22.5248 275.516 22.3755 270.916 22.0999 268.439C22.0474 267.954 22.0607 267.52 22.1037 267.113C22.2402 265.746 22.6621 264.676 22.322 263.214C22.2618 262.952 20.662 263.145 20.6042 263.064C18.7956 260.841 22.6353 262.023 23.3479 261.607C25.9406 260.053 27.3234 259.18 26.2536 256.303C26.0091 255.63 20.4913 253.59 20.2128 252.378C19.86 250.824 21.8412 251.48 21.4195 249.878C21.3853 249.74 20.1474 249.722 20.2412 248.75C20.6628 244.177 21.581 239.202 21.6711 234.389C21.6879 233.742 19.6897 234.482 19.6817 233.547C19.6507 229.076 19.9718 224.104 21.1995 219.644C21.5087 218.544 22.8312 219.34 23.2551 219.128C25.8157 217.885 22.4151 215.431 22.3767 215.096C21.6659 206.241 24.6264 200.451 28.2727 187.902C28.2754 187.42 28.2237 179.627 32.9326 179.364C33.2788 179.282 37.4796 179.538 37.6879 176.32C37.7091 176.145 36.1024 176.031 36.7518 174.989C36.8278 174.812 37.0047 174.606 37.4163 174.301C38.7013 173.561 39.3734 171.657 45.9707 169.11C49.1299 167.868 56.2695 167.384 61.4483 170.372C66.5167 173.194 68.2863 176.51 69.1286 178.618C70.4222 181.776 68.4024 186.287 71.6245 188.67C71.7239 188.74 73.1422 189.487 74.3133 190.521C75.7456 191.516 76.815 192.866 74.6021 193.914C73.9472 194.229 69.5436 194.616 72.1449 197.009C72.6462 197.466 73.5103 196.405 74.2911 197.688C75.494 199.677 74.6074 202.534 76.7964 204.935C77.1848 205.352 80.3448 207.048 78.174 208.779C77.8338 209.046 76.3276 208.688 76.2168 209.512C75.6783 213.428 76.8283 217.504 75.7753 221.654C75.3997 223.112 73.0214 222.343 72.3478 223.828C71.6785 225.329 70.9054 228.336 71.82 230.135C72.7291 231.97 76.7469 230.396 76.7157 233.224C76.6455 235.746 76.3304 238.432 75.3673 241.718C73.2722 248.909 69.5716 255.434 66.9779 262.294C66.4967 263.563 68.1488 262.938 67.5302 264.841C65.7393 270.383 63.4821 279.292 60.3992 285.012C58.4532 289.794 55.7541 292.619 53.7121 294.17C49.8215 296.87 49.6511 295.346 49.4949 294.34C49.4031 293.19 49.4794 292.18 47.2323 293.784C45.1295 295.217 46.357 299.953 46.0863 300.38C43.5451 304.402 40.8149 304.235 39.9274 306.239C39.7783 306.623 41.4093 307.459 41.2947 307.743C40.9641 308.671 39.9352 308.862 39.788 309.57C39.7571 309.746 40.1719 309.972 40.4971 310.162C40.8334 309.655 41.1879 309.064 41.5496 307.866C41.8424 306.571 42.5376 304.829 41.7257 300.232C41.0305 294.002 33.5228 286.914 29.1318 286.094C24.6017 284.74 22.1453 285.228 20.1252 285.583C16.2577 286.497 13.892 287.952 11.2917 290.703C6.96833 295.965 7.8251 297.716 7.83952 297.795C8.19273 297.799 8.31743 296.807 10.595 292.759C10.8109 292.408 10.7302 292.827 10.6617 293.382C10.5927 293.934 10.5712 294.575 10.6802 294.914C10.79 295.254 10.9783 295.371 11.3623 294.875C11.9056 294.325 11.8558 293.32 15.1529 289.537C16.767 287.797 19.4193 286.007 22.0835 285.184C24.5663 284.462 25.7582 284.475 26.7816 284.417C27.777 284.386 28.4942 284.414 29.1377 284.395C30.4039 284.363 31.3772 284.153 32.1398 283.37C32.6387 282.854 31.87 279.833 33.4874 281.628C33.8175 281.997 34.6784 285.696 34.9837 282.161C35.1458 281.546 35.2394 276.793 37.4557 278.785C37.8393 279.112 38.8349 280.159 39.6706 280.657C40.5725 280.715 41.3757 280.642 41.9331 280.168C42.142 279.983 40.4234 278.936 41.8421 278.079C46.9312 275.138 51.7535 274.482 54.7468 273.293C55.5348 272.98 53.9845 271.526 55.1279 271.122C56.652 270.579 57.871 270.265 58.4032 270.202C58.9639 270.131 58.8332 270.405 58.7234 270.835C58.6468 271.152 59.6909 272.169 59.7624 272.312C60.5108 273.35 60.406 273.147 59.9772 272.77C59.5598 272.384 58.855 271.802 58.7571 271.762C58.4539 271.63 58.3107 271.622 58.2929 271.621C63.4835 264.623 66.544 264.551 68.4145 263.536C70.3438 262.796 71.5479 262.484 72.5525 261.915C73.2703 261.513 72.1353 260.191 72.232 259.996C73.1314 258.106 73.1748 261.261 74.1258 261.234C76.673 261.219 78.1113 260.326 79.021 259.44C79.3405 259.12 77.8545 257.835 78.1091 257.592C78.4453 257.25 78.7384 256.937 79.0367 256.626C82.6411 253.037 86.6903 249.879 90.6372 247.597C91.614 247.036 92.027 248.609 92.4189 248.717C95.1422 249.49 94.7689 245.628 94.9347 245.087C95.7138 242.602 97.1568 243.074 98.2144 241.791C100.401 239.143 101.369 237.581 101.71 236.875C105.909 228.668 108.088 225.974 109.896 221.818C113.701 213.24 116.249 204.764 116.523 193.944C116.537 193.258 114.551 193.843 114.538 193.261C114.515 191.408 114.539 189.562 114.574 187.654C114.693 181.392 115.155 175.119 114.849 168.781C114.819 168.087 112.949 169.052 112.839 167.935C112.6 165.686 112.752 162.819 113.382 160.531C113.686 159.421 115.249 160.938 115.522 159.827C116.162 157.233 116.339 154.427 116.082 151.736C115.969 150.596 114.05 152.286 114.05 150.805C114.009 140.692 113.788 130.791 116.273 120.623C116.443 119.929 120.293 119.322 119.558 117.834C118.49 117.72 117.234 117.724 116.092 117.674C115.487 103.041 116.739 88.5261 116.279 74.272C116.258 73.678 114.273 74.7988 114.221 73.6591C114.169 72.5231 114.087 71.3017 114.004 70.206C113.58 64.4831 113.142 58.8964 114.399 53.0036C114.547 52.2897 118.152 52.3913 117.461 50.3798C117.337 50.0175 116.625 46.9683 115.784 46.2543C115.658 46.1551 114.035 46.8509 113.906 45.8656C113.19 40.1859 113.009 34.3099 113.258 28.9079C113.302 28.0412 115.198 28.6797 115.242 28.0572C115.532 23.5423 113.32 19.3985 113.808 15.555C114.108 12.9442 117.3 12.8042 119.654 10.4138C119.989 10.0659 119.418 8.50243 120.988 7.71018C124.941 5.66947 129.796 4.64752 133.975 2.39339C134.896 1.90386 132.524 -0.577899 135.572 0.124205C135.79 0.173748 137.498 2.04354 138.483 2.2955C139.173 2.47023 140.561 1.09583 141.569 1.63981C142.582 2.20857 141.502 3.61175 142.772 4.66079C144.039 5.71027 145.827 4.5083 146.863 7.15948ZM27.7367 285.338C29.6531 283.924 23.4523 282.895 24.7146 284.825C24.7828 284.919 27.642 285.411 27.7367 285.338ZM81.3518 344.764C78.116 343.256 78.4521 347.593 80.8276 348.837C83.2235 350.064 82.348 345.212 81.3518 344.764ZM100.965 332.03C97.6477 331.384 101.652 339.35 103.174 336.434C103.262 336.268 101.158 332.067 100.965 332.03ZM122.508 16.7388C122.585 16.6913 122.347 15.4438 122.256 15.4322C120.163 15.3102 120.629 17.7477 122.508 16.7388ZM120 320.15C118.821 319.303 117.247 321.466 118.726 322.474C119.889 323.286 121.422 321.209 120 320.15ZM41.656 198.123C41.7518 198.12 42.1617 197.206 41.661 197.045C40.0338 196.511 40.007 198.083 41.656 198.123ZM152.868 303.279C150.627 303.235 149.116 302.084 147.288 301.509C146.322 301.219 145.344 301.142 144.811 300.714C144.287 300.319 144.141 299.412 145.29 298.277C146.233 297.377 147.646 296.82 149.092 296.731C149.855 296.693 149.129 297.375 148.521 298.179C147.888 298.992 147.504 299.892 148.453 299.945C151.482 300.466 153.136 296.027 155.895 298.46C156.377 298.91 153.12 303.288 152.859 303.29C152.862 303.286 152.865 303.283 152.868 303.279ZM35.3418 285.371C35.4294 285.349 35.6789 284.01 35.6004 283.967C33.7134 282.996 33.2133 285.672 35.3418 285.371ZM55.4323 225.761C55.2669 225.823 54.8777 228.825 55.0138 228.922C58.1325 230.892 58.9674 224.544 55.4323 225.761ZM21.7829 376.518C23.2033 378.581 22.8567 380.327 20.1 380.626C20.6885 379.293 21.1883 377.893 21.7829 376.518Z" fill="#810F0F"/>
</svg>
